<svg xmlns="http://www.w3.org/2000/svg" xmlns:xlink="http://www.w3.org/1999/xlink" version="1.1" x="0px" y="0px" viewBox="0 0 16 20" style="enable-background:new 0 0 16 16;" xml:space="preserve"><path d="M15.854,7.146l-5-5c-0.144-0.143-0.358-0.186-0.545-0.108C10.122,2.115,10,2.298,10,2.5V6H0.5C0.224,6,0,6.224,0,6.5v2  C0,8.776,0.224,9,0.5,9H10v3.5c0,0.202,0.122,0.385,0.309,0.462C10.37,12.987,10.436,13,10.5,13c0.13,0,0.258-0.051,0.354-0.146l5-5  C16.049,7.658,16.049,7.342,15.854,7.146z"/><text x="0" y="31" fill="#000000" font-size="5px" font-weight="bold" font-family="'Helvetica Neue', Helvetica, Arial-Unicode, Arial, Sans-serif">Created by icon 54</text><text x="0" y="36" fill="#000000" font-size="5px" font-weight="bold" font-family="'Helvetica Neue', Helvetica, Arial-Unicode, Arial, Sans-serif">from the Noun Project</text></svg>