<?xml version="1.0" encoding="UTF-8" standalone="no"?>
<svg
   xmlns:dc="http://purl.org/dc/elements/1.1/"
   xmlns:cc="http://creativecommons.org/ns#"
   xmlns:rdf="http://www.w3.org/1999/02/22-rdf-syntax-ns#"
   xmlns:svg="http://www.w3.org/2000/svg"
   xmlns="http://www.w3.org/2000/svg"
   xmlns:sodipodi="http://sodipodi.sourceforge.net/DTD/sodipodi-0.dtd"
   xmlns:inkscape="http://www.inkscape.org/namespaces/inkscape"
   width="500"
   height="500"
   viewBox="0 0 132.29166 132.29167"
   version="1.1"
   id="svg860"
   inkscape:version="1.0.1 (3bc2e813f5, 2020-09-07)"
   sodipodi:docname="DNLSatteliteImg.svg"
   inkscape:export-filename="C:\Users\Baxo\Pictures\DNLImg.png"
   inkscape:export-xdpi="96"
   inkscape:export-ydpi="96">
  <defs
     id="defs854" />
  <sodipodi:namedview
     id="base"
     pagecolor="#ffffff"
     bordercolor="#666666"
     borderopacity="1.0"
     inkscape:pageopacity="0.0"
     inkscape:pageshadow="2"
     inkscape:zoom="0.9899495"
     inkscape:cx="153.00475"
     inkscape:cy="282.37359"
     inkscape:document-units="px"
     inkscape:current-layer="layer1"
     inkscape:document-rotation="0"
     showgrid="false"
     units="px"
     inkscape:window-width="1920"
     inkscape:window-height="1001"
     inkscape:window-x="-9"
     inkscape:window-y="-9"
     inkscape:window-maximized="1"
     showguides="false"
     inkscape:pagecheckerboard="true" />
  <metadata
     id="metadata857">
    <rdf:RDF>
      <cc:Work
         rdf:about="">
        <dc:format>image/svg+xml</dc:format>
        <dc:type
           rdf:resource="http://purl.org/dc/dcmitype/StillImage" />
        <dc:title></dc:title>
      </cc:Work>
    </rdf:RDF>
  </metadata>
  <g
     inkscape:label="Layer 1"
     inkscape:groupmode="layer"
     id="layer1">
    <rect
       style="font-variation-settings:'wdth' 100, 'wght' 700;opacity:1;fill:none;fill-opacity:1;stroke:#FFFFFF;stroke-width:2.07999;stroke-miterlimit:4;stroke-dasharray:none;stroke-opacity:1"
       id="rect1423"
       width="49.402306"
       height="25.854469"
       x="-9.7687712"
       y="80.731613"
       ry="2.6229172"
       transform="rotate(-45)" />
    <path
       style="font-variation-settings:'wdth' 100, 'wght' 700;opacity:1;fill:none;fill-opacity:1;stroke:#FFFFFF;stroke-width:2.17477;stroke-miterlimit:4;stroke-dasharray:none;stroke-opacity:1"
       id="path1425"
       sodipodi:type="arc"
       sodipodi:cx="-93.658844"
       sodipodi:cy="-18.888124"
       sodipodi:rx="12.954299"
       sodipodi:ry="9.0412359"
       sodipodi:start="0"
       sodipodi:end="3.1415927"
       sodipodi:arc-type="arc"
       d="m -80.704545,-18.888124 a 12.954299,9.0412359 0 0 1 -6.47715,7.82994 12.954299,9.0412359 0 0 1 -12.954295,-10e-7 12.954299,9.0412359 0 0 1 -6.47715,-7.829939"
       sodipodi:open="true"
       transform="rotate(-135)" />
    <path
       id="rect1436"
       style="font-variation-settings:'wdth' 100, 'wght' 700;opacity:1;fill:#FFFFFF;fill-opacity:1;stroke:#FFFFFF;stroke-width:1.24798;stroke-miterlimit:4;stroke-dasharray:none;stroke-opacity:1"
       d="m 49.461717,69.417239 2.814087,10.500798 0.355015,-0.09534 -2.814015,-10.500832 z m 3.169118,10.40545 -0.09533,0.355044 10.500829,2.814038 0.09533,-0.355052 z" />
    <ellipse
       style="font-variation-settings:'wdth' 100, 'wght' 700;opacity:1;fill:#FFFFFF;fill-opacity:1;stroke:#FFFFFF;stroke-width:1.90216;stroke-miterlimit:4;stroke-dasharray:none;stroke-opacity:1"
       id="path1447"
       cx="-19.492456"
       cy="93.658844"
       rx="0.74774015"
       ry="0.72294623"
       transform="rotate(-45)" />
    <path
       style="font-variation-settings:'wdth' 100, 'wght' 700;opacity:1;fill:none;fill-opacity:1;stroke:#FFFFFF;stroke-width:2.07999;stroke-miterlimit:4;stroke-dasharray:none;stroke-opacity:1"
       id="path1449"
       sodipodi:type="arc"
       sodipodi:cx="93.658844"
       sodipodi:cy="16.650225"
       sodipodi:rx="9.3070269"
       sodipodi:ry="11.301459"
       sodipodi:start="0.6981317"
       sodipodi:end="2.443461"
       sodipodi:arc-type="arc"
       d="m 100.78844,23.914663 a 9.3070269,11.301459 0 0 1 -7.129596,4.037021 9.3070269,11.301459 0 0 1 -7.129596,-4.037022"
       sodipodi:open="true"
       transform="rotate(45)" />
    <path
       style="font-variation-settings:'wdth' 100, 'wght' 700;opacity:1;fill:none;fill-opacity:1;stroke:#FFFFFF;stroke-width:2.07999;stroke-miterlimit:4;stroke-dasharray:none;stroke-opacity:1"
       id="path1451"
       sodipodi:type="arc"
       sodipodi:cx="93.658844"
       sodipodi:cy="21.996332"
       sodipodi:rx="12.073175"
       sodipodi:ry="14.660377"
       sodipodi:start="0.6981317"
       sodipodi:end="2.443461"
       sodipodi:arc-type="arc"
       d="M 102.90743,31.419841 A 12.073175,14.660377 0 0 1 93.658844,36.656709 12.073175,14.660377 0 0 1 84.410255,31.41984"
       sodipodi:open="true"
       transform="rotate(45)" />
    <path
       style="font-variation-settings:'wdth' 100, 'wght' 700;opacity:1;fill:none;fill-opacity:1;stroke:#FFFFFF;stroke-width:2.2345;stroke-miterlimit:4;stroke-dasharray:none;stroke-opacity:1"
       id="path1453"
       sodipodi:type="arc"
       sodipodi:cx="93.658844"
       sodipodi:cy="25.439939"
       sodipodi:rx="15.658603"
       sodipodi:ry="19.014135"
       sodipodi:start="0.6981317"
       sodipodi:end="2.443461"
       sodipodi:arc-type="arc"
       d="M 105.65403,37.66199 A 15.658603,19.014135 0 0 1 93.658844,44.454075 15.658603,19.014135 0 0 1 81.663658,37.661989"
       sodipodi:open="true"
       transform="rotate(45)" />
    <path
       style="font-variation-settings:'wdth' 100, 'wght' 700;opacity:1;fill:none;fill-opacity:1;stroke:#FFFFFF;stroke-width:2.37677;stroke-miterlimit:4;stroke-dasharray:none;stroke-opacity:1"
       id="path1455"
       sodipodi:type="arc"
       sodipodi:cx="93.658844"
       sodipodi:cy="28.935801"
       sodipodi:rx="20.689793"
       sodipodi:ry="25.123476"
       sodipodi:start="0.6981317"
       sodipodi:end="2.443461"
       sodipodi:arc-type="arc"
       d="M 109.50814,45.08486 A 20.689793,25.123476 0 0 1 93.658844,54.059277 20.689793,25.123476 0 0 1 77.809543,45.084859"
       sodipodi:open="true"
       transform="rotate(45)" />
    <path
       style="font-variation-settings:'wdth' 100, 'wght' 700;opacity:1;fill:none;fill-opacity:1;stroke:#FFFFFF;stroke-width:2.29122;stroke-miterlimit:4;stroke-dasharray:none;stroke-opacity:1"
       id="path1457"
       sodipodi:type="arc"
       sodipodi:cx="93.658844"
       sodipodi:cy="32.610897"
       sodipodi:rx="26.28944"
       sodipodi:ry="31.923092"
       sodipodi:start="0.6981317"
       sodipodi:end="2.443461"
       sodipodi:arc-type="arc"
       d="M 113.79772,53.130665 A 26.28944,31.923092 0 0 1 93.658844,64.533989 26.28944,31.923092 0 0 1 73.519964,53.130664"
       sodipodi:open="true"
       transform="rotate(45)" />
    <rect
       style="font-variation-settings:'wdth' 100, 'wght' 700;opacity:1;fill:#FFFFFF;fill-opacity:1;stroke:none;stroke-width:0.776285;stroke-miterlimit:4;stroke-dasharray:none"
       id="rect1459"
       width="2.4733012"
       height="6.7128034"
       x="13.695757"
       y="74.018806"
       transform="rotate(-45)" />
    <path
       id="rect1475"
       style="font-variation-settings:'wdth' 100, 'wght' 700;opacity:1;fill:none;fill-opacity:1;stroke:#FFFFFF;stroke-width:2.07999;stroke-miterlimit:4;stroke-dasharray:none;stroke-opacity:1"
       d="m 31.057901,9.9403194 7.22761,-7.2276171 10.613377,10.6133497 -7.227622,7.227631 z M 41.671266,20.553683 48.898888,13.326052 59.512252,23.939416 52.28463,31.167047 Z M 23.830279,17.167951 31.057902,9.9403194 41.671266,20.553683 34.443612,27.781316 Z m 10.613333,10.613365 7.227654,-7.227633 10.613333,10.613368 -7.22761,7.227618 z m 10.613377,10.613352 7.22761,-7.227619 10.613377,10.613352 -7.227623,7.22763 z m 7.22761,-7.227619 7.227653,-7.227634 10.613333,10.613368 -7.227609,7.227618 z" />
    <path
       id="path1493"
       style="font-variation-settings:'wdth' 100, 'wght' 700;opacity:1;fill:none;fill-opacity:1;stroke:#FFFFFF;stroke-width:2.07999;stroke-miterlimit:4;stroke-dasharray:none;stroke-opacity:1"
       d="m 90.673163,69.555621 7.227638,-7.227633 10.613369,10.613356 -7.22763,7.22764 z m 10.613377,10.613363 7.22763,-7.22764 10.61335,10.613361 -7.22762,7.227633 z m -17.840995,-3.385731 7.22765,-7.22764 10.613345,10.61337 -7.227639,7.227623 z m 10.613356,10.613353 7.227639,-7.227623 10.61336,10.613352 -7.22762,7.227636 z m 10.613379,10.613365 7.22762,-7.227636 10.61337,10.613355 -7.22764,7.22764 z m 7.22762,-7.227633 7.22762,-7.227633 10.61336,10.613363 -7.22762,7.227622 z" />
    <path
       style="font-variation-settings:'wdth' 100, 'wght' 700;opacity:1;fill:none;fill-opacity:1;stroke:#FFFFFF;stroke-width:2.16871;stroke-miterlimit:4;stroke-dasharray:none;stroke-opacity:1"
       id="path1559"
       sodipodi:type="arc"
       sodipodi:cx="93.658844"
       sodipodi:cy="37.395889"
       sodipodi:rx="32.358131"
       sodipodi:ry="39.292263"
       sodipodi:start="0.6981317"
       sodipodi:end="2.443461"
       sodipodi:arc-type="arc"
       d="M 118.44661,62.652469 A 32.358131,39.292263 0 0 1 93.658844,76.688152 32.358131,39.292263 0 0 1 68.871076,62.652468"
       sodipodi:open="true"
       transform="rotate(45)" />
    <rect
       style="font-variation-settings:'wdth' 100, 'wght' 700;opacity:1;fill:#FFFFFF;fill-opacity:1;stroke:none;stroke-width:0.776285;stroke-miterlimit:4;stroke-dasharray:none"
       id="rect925"
       width="2.4733012"
       height="6.7128034"
       x="13.695757"
       y="106.58609"
       transform="rotate(-45)" />
  </g>
</svg>
