<?xml version="1.0" encoding="UTF-8"?>
<svg xmlns="http://www.w3.org/2000/svg" width="90" height="90">
  <path d="M51.7254545 79.3495041c-1.1402479.8122314-2.3764462 1.4786777-3.6870247 1.9948761 2.5252066-3.5903306 3.899752-8.0018182 4.08719-12.7123141l5.205124 4.0604132c-1.3038843 2.6427273-3.1730578 4.9247108-5.6052893 6.6570248Zm-33.4487603 3.4809918 2.6308265-5.583719c1.2585124 1.1238843 2.5787603 2.1428925 3.9428925 3.0592562.1108265.1019008.2320661.1933884.3741323.2610743.0052066.0022314.0096694.0029752.014876.0052066 4.1243802 2.688843 8.647438 4.3832232 13.1615702 4.8733885-2.1867768.9215702-4.5885124 1.4087603-7.1055372 1.4087603-4.4166942 0-8.936033-1.4489256-13.0187603-4.0239669Zm-8.80735536-8.373719c-4.08719008-5.737686-6.12595041-12.3999174-5.74066115-18.7594215.21198347-3.506281 1.15066115-6.6830579 2.72752066-9.3592562l2.12355372 1.6564463c-.66123967 7.4119834 1.53000003 15.7128099 6.69495863 22.9633884 1.0398348 1.4593388 2.1771075 2.8182644 3.3798348 4.0894215l-2.8457852 6.0404132c-2.3571074-1.8416529-4.5133884-4.068595-6.33942146-6.6309917Zm.22983471-32.1240496c-.23727272.746033-.43809917 1.5099173-.60694215 2.2871901l-.91190082-.7103306c.47231405-.5578513.97809917-1.0844628 1.51884297-1.5768595Zm9.55115705-8.5671075c3.0146281-2.1466115 6.6979339-3.2816529 10.6519834-3.2816529 5.0652893 0 10.2763637 1.8223141 14.910248 5.0243802l-3.6431405 7.7318182c-5.6313223-5.2438017-12.7026446-8.3372727-19.5835537-8.3372727-1.4392562 0-2.8450414.1495041-4.211405.4165289.5846281-.5556198 1.2064463-1.0770248 1.8758678-1.5538017ZM41.328595 56.437438c.4626447-.7527273.6857852-1.6252066.6322314-2.5259504-.0654545-1.076281-.5243801-2.0432231-1.2272727-2.7661983l1.2689256-2.6918182c.4857025.5890909.9617356 1.192314 1.410248 1.822314 2.6717355 3.7495042 4.4033058 7.8285124 5.2252066 11.8621488L41.328595 56.437438ZM14.1761157 39.4229752c.1063636-.0476033.2119835-.0966942.3190909-.1420661l15.3654546 11.9856198-2.6144629 5.5495042c-.6114049.0766115-1.1863636.2952892-1.6735537.6582644L11.7141322 46.6653719c.4061157-2.617438 1.2250414-5.0704959 2.4619835-7.2423967Zm16.9854545 9.0840496L17.9866116 38.2299174c1.166281-.2253719 2.3675206-.3518182 3.5992562-.3518182 4.3244628 0 8.7463636 1.3931405 12.7614049 3.8685124l-3.1857025 6.7604132Zm6.8905786 1.3477686c-.2261157-.0215703-.453719-.0312397-.6880166-.0156198-1.1157024.0669421-2.1049586.5556198-2.8309091 1.29719l-.9661983-.753471 3.2638016-6.9247934c1.04281.7980991 2.0484298 1.6690909 3.0034711 2.6152066l-1.7821487 3.7814876Zm-6.821405 10.3053719 3.0726446-2.351157-2.2314049 4.7357851-1.1134711-.8687603c.1971074-.4760331.2967769-.9877686.2722314-1.5158678Zm2.0603306-5.7242975c.007438.123471.0394215.2387603.0565289.3592562l-2.9067769 2.2232231 1.8260331-3.8759504 1.0242149.798843c-.0089256.1636363-.0104132.3280165 0 .4946281Zm-21.87-4.2247934 12.7368595 9.9342149c-.0066942.1316528-.0230579.2618181-.014876.3942148.0379338.618843.2447107 1.1863637.5578512 1.6780166l-4.6822314 9.9349586c-.8159504-.9238016-1.5924794-1.897438-2.3206612-2.9201653-4.2909917-6.0233057-6.3595041-12.8127272-6.2769421-19.0212396Zm10.814876 24.217438 4.9938843-10.597686c.1509917.0200827.3004959.0446281.4559504.0446281.071405 0 .1442975-.0022314.2164463-.0066942.284876-.0171074.558595-.0780991.8256198-.1591735l2.043967 1.5954545-5.501157 11.673967c-1.0495042-.7780166-2.0610744-1.6326447-3.0347108-2.5504959Zm18.8375207 8.2033884c-4.4866116 0-9.0870248-1.4310744-13.301405-3.9808264l5.4052066-11.4709091 13.2984298 10.3730578c.097438.0758678.206033.1204959.3123967.168843-.9647108 1.8104132-2.2157852 3.4333884-3.753967 4.8034711-.6456198.0632231-1.2979339.1063636-1.9606611.1063636Zm6.9173553-7.6708264L34.4781818 64.4206612l2.7981818-5.9385124c.1160331.0089256.2290909.033471.3473554.033471.0877686 0 .176281-.0022314.2640496-.0081818.3480992-.0208264.6828099-.0944628 1.008595-.1941322l10.2674381 8.0092562c.1435537 3.0421487-.2521488 5.9764463-1.1729753 8.6385124Zm5.2861984-31.0775207c5.9630578 8.3692562 7.6395868 18.2179339 5.201405 25.9304132l-6.4599174-5.0392562c-.5147107-5.4684297-2.5534711-11.1317355-6.1824793-16.226033-.7623967-1.0695868-1.5798348-2.0871075-2.4411571-3.0503306l3.840248-8.1498347c2.2261983 1.8624793 4.2738843 4.0544628 6.0419008 6.5350413Zm2.4233058-1.7263636c-2.2715703-3.1879339-4.9782645-5.9385124-7.9371075-8.1780992-.0959504-.0989256-.2075206-.183719-.3324793-.2543802-5.3538843-3.9540495-11.5222314-6.2159504-17.5284298-6.2159504-4.5758677 0-8.8564462 1.3254546-12.3776033 3.8335537-1.8394214 1.3105786-3.3969421 2.8933885-4.6807438 4.6785124-.014876.0171075-.0319834.0304959-.0468595.0483472-.0438843.0565289-.0773553.1182644-.112314.1792562-.194876.277438-.3838017.5600826-.5645455.8479338-.896281.45-1.7590909.963967-2.5787603 1.5471075-5.23041322 3.7257025-8.34991735 9.7177686-8.78280991 16.8738843C.33247934 62.553719 2.5653719 69.8935537 7.04677686 76.1831405 13.0433058 84.6007438 22.334876 89.8296694 31.2954545 89.8296694c4.4457025 0 8.610248-1.2934711 12.0466116-3.7405785.3198347-.2283471.6292562-.464876.9327273-.7095868 3.3627273-.4738016 6.491157-1.6936363 9.176281-3.6066942 3.153719-2.246281 5.493719-5.2809917 7.0066116-8.7909917.0736363-.1271901.1279338-.2610744.1606611-.3986777 3.6230579-8.8542149 2.0804132-20.602562-4.9180165-30.4259504Zm25.5012396 28.9814876c-2.1666942 0-3.9317355-1.7642975-3.9317355-3.9309917 0-.2357852-.1919008-.4373554-.4366116-.4373554-.2447107 0-.4366115.2015702-.4366115.4373554 0 2.1666942-1.7642976 3.9309917-3.9309918 3.9309917-.2454545 0-.4373553.2015702-.4373553.4366116 0 .2439669.1919008.4366115.4373553.4366115 2.1666942 0 3.9309918 1.7650413 3.9309918 3.9317356 0 .2439669.1919008.4366115.4366115.4366115.2447108 0 .4366116-.1926446.4366116-.4366115 0-2.1666943 1.7650413-3.9317356 3.9317355-3.9317356.2447108 0 .4366116-.1926446.4366116-.4366115 0-.2350414-.1919008-.4366116-.4366116-.4366116m-41.508595-54.5957851c1.8453719 0 3.3471074 1.5024793 3.3471074 3.3471074 0 .2075207.1636364.3719008.3719009.3719008.2090082 0 .3719008-.1643801.3719008-.3719008 0-1.8446281 1.5024793-3.3471074 3.3471074-3.3471074.2090083 0 .3719009-.1643802.3719009-.3719009 0-.2008264-.1628926-.3719008-.3719009-.3719008-1.8446281 0-3.3471074-1.5024793-3.3471074-3.3471074 0-.2008265-.1628926-.3719009-.3719008-.3719009-.2082645 0-.3719009.1710744-.3719009.3719009 0 1.8446281-1.5017355 3.3471074-3.3471074 3.3471074-.2082645 0-.3719008.1710744-.3719008.3719008 0 .2075207.1636363.3719009.3719008.3719009M2.9253719 19.1461983c1.8438843 0 3.34710744 1.5024794 3.34710744 3.3471075 0 .2075206.16289256.3719008.37190083.3719008.20826446 0 .37190082-.1643802.37190082-.3719008 0-1.8446281 1.50247934-3.3471075 3.34710741-3.3471075.2082645 0 .3719009-.1643801.3719009-.3719008 0-.2008264-.1636364-.3719008-.3719009-.3719008-1.84462807 0-3.34710741-1.5024793-3.34710741-3.3471074 0-.2008265-.16363636-.3719009-.37190082-.3719009-.20900827 0-.37190083.1710744-.37190083.3719009 0 1.8446281-1.50322314 3.3471074-3.34710744 3.3471074-.20900826 0-.37190083.1710744-.37190083.3719008 0 .2075207.16289257.3719008.37190083.3719008m83.5229752-3.5724793c0 3.0406612-2.4738843 5.5138017-5.5138016 5.5138017-3.0406612 0-5.5145455-2.4731405-5.5145455-5.5138017 0-3.0406611 2.4738843-5.5138016 5.5145455-5.5138016 3.0399173 0 5.5138016 2.4731405 5.5138016 5.5138016ZM58.7447107 3.13735537l17.60281 5.30404959c-.618843.39942149-1.1774381.87694215-1.6720662 1.41768595l-9.1041322-2.87107438c-.7809917-.24842975-1.6192562.18669421-1.8661983.97140496-.2469422.78396694.187438 1.6192562.9714049 1.86619834l8.3670248 2.63826447c-.382314.9639669-.5987603 2.0119835-.5987603 3.1098347 0 1.0866942.2134711 2.1228099.5876033 3.078595l-8.3558678 2.6338017c-.7839669.2469422-1.2183471 1.0822314-.9714049 1.8661983.2000826.6344629.7861983 1.0405786 1.4184297 1.0405786.1480165 0 .2990083-.0223141.4477686-.0699174l9.078843-2.861405c.4953719.5459505 1.0569421 1.0294215 1.6780165 1.432562l-17.5827273 5.280248c-.7861983.2365289-1.2332231 1.0658677-.9959504 1.8520661.1926447.644876.7832232 1.0606611 1.4236364 1.0606611.1413223 0 .2856198-.0208264.4284297-.0639669l23.269091-6.9872727c.0096694-.0029752.0171074-.0081818.0267768-.0111571 3.7361157-.8895867 6.5261157-4.2471074 6.5261157-8.2509917 0-3.9354545-2.696281-7.24462809-6.3364463-8.20115702-.0193388-.00743801-.0357024-.01785124-.0550413-.02305785L59.6030579.28785124c-.7847108-.23504132-1.6170248.20900826-1.8535538.99520661-.2372727.78694215.2082645 1.61702479.9952066 1.85429752Z"/>
  <path d="M81.5020661 18.4247107c.2938017.32281.6969422.4871901 1.1015703.4871901.356281 0 .7147934-.1279339.9996694-.3875206.8628099-.783967 1.357438-1.9019009 1.357438-3.0659504 0-1.1298348-.4470248-2.1852893-1.2577686-2.9714877-.5898347-.573471-1.5322314-.5578512-2.1034711.0304959-.5719834.5898347-.558595 1.5314876.0304959 2.1034711.2298347.2223967.3555372.5199173.3555372.8375207 0 .3324793-.1361157.6396694-.3838017.8650413-.6076859.5519008-.652314 1.4935537-.0996694 2.1012396m5.6766942 15.990248c-1.8446281 0-3.3471074-1.5017356-3.3471074-3.3471075 0-.2000826-.1636364-.3719008-.3719008-.3719008-.2082645 0-.3719009.1718182-.3719009.3719008 0 1.8453719-1.5017355 3.3471075-3.3471074 3.3471075-.2082645 0-.3719008.1718182-.3719008.3719008 0 .2082645.1636363.3719008.3719008.3719008 1.8453719 0 3.3471074 1.5024794 3.3471074 3.3471075 0 .2082644.1636364.3719008.3719009.3719008.2082644 0 .3719008-.1636364.3719008-.3719008 0-1.8446281 1.5024793-3.3471075 3.3471074-3.3471075.2082645 0 .3719009-.1636363.3719009-.3719008 0-.2000826-.1636364-.3719008-.3719009-.3719008m-13.053719 12.8305785c0-.2000827-.1628925-.3719008-.3719008-.3719008-1.8446281 0-3.3471074-1.5017356-3.3471074-3.3471075 0-.2000826-.1628926-.3719008-.3719009-.3719008-.2082644 0-.3719008.1718182-.3719008.3719008 0 1.8453719-1.5017355 3.3471075-3.3471074 3.3471075-.2082645 0-.3719009.1718181-.3719009.3719008 0 .2082645.1636364.3719008.3719009.3719008 1.8453719 0 3.3471074 1.5024794 3.3471074 3.3471075 0 .2082644.1636364.3719008.3719008.3719008.2090083 0 .3719009-.1636364.3719009-.3719008 0-1.8446281 1.5024793-3.3471075 3.3471074-3.3471075.2090083 0 .3719008-.1636363.3719008-.3719008M26.2963636 5.5792562c2.1666943 0 3.9309918 1.76504132 3.9309918 3.93173554 0 .24396694.191157.43661157.4366115.43661157.2447108 0 .4366116-.19264463.4366116-.43661157 0-2.16669422 1.7650413-3.93173554 3.9317355-3.93173554.2447108 0 .4366116-.19264463.4366116-.43661157 0-.23578513-.1919008-.43661157-.4366116-.43661157-2.1666942 0-3.9317355-1.76429752-3.9317355-3.93099174 0-.23652892-.1919008-.43735537-.4366116-.43735537-.2454545 0-.4366115.20082645-.4366115.43735537 0 2.16669422-1.7642975 3.93099174-3.9309918 3.93099174-.2461983 0-.4373553.20082644-.4373553.43661157 0 .24396694.191157.43661157.4373553.43661157"/>
</svg>