<?xml version="1.0" encoding="UTF-8" standalone="no"?>
<!-- Created with Inkscape (http://www.inkscape.org/) -->

<svg
   xmlns:dc="http://purl.org/dc/elements/1.1/"
   xmlns:cc="http://creativecommons.org/ns#"
   xmlns:rdf="http://www.w3.org/1999/02/22-rdf-syntax-ns#"
   xmlns:svg="http://www.w3.org/2000/svg"
   xmlns="http://www.w3.org/2000/svg"
   xmlns:sodipodi="http://sodipodi.sourceforge.net/DTD/sodipodi-0.dtd"
   xmlns:inkscape="http://www.inkscape.org/namespaces/inkscape"
   inkscape:version="0.92.4 (5da689c313, 2019-01-14)"
   sodipodi:docname="GSLV_logo.svg"
   viewBox="0 0 400.00046 525.51148"
   height="525.51147"
   width="400.00046"
   id="svg10"
   version="1.1">
  <title
     id="title818">GSLV logo Classic</title>
  <sodipodi:namedview
     inkscape:current-layer="layer3"
     inkscape:window-maximized="1"
     inkscape:window-y="-8"
     inkscape:window-x="-8"
     inkscape:cy="267.53109"
     inkscape:cx="190.15177"
     inkscape:zoom="1"
     showgrid="false"
     id="namedview12"
     inkscape:window-height="715"
     inkscape:window-width="1366"
     inkscape:pageshadow="2"
     inkscape:pageopacity="0"
     guidetolerance="10"
     gridtolerance="10"
     objecttolerance="10"
     borderopacity="1"
     bordercolor="#666666"
     pagecolor="#ffffff"
     fit-margin-top="25"
     fit-margin-left="25"
     fit-margin-right="25"
     fit-margin-bottom="25" />
  <metadata
     id="metadata16">
    <rdf:RDF>
      <cc:Work
         rdf:about="">
        <dc:format>image/svg+xml</dc:format>
        <dc:type
           rdf:resource="http://purl.org/dc/dcmitype/StillImage" />
        <dc:title>GSLV logo Classic</dc:title>
        <dc:date>9 February 2019</dc:date>
        <dc:creator>
          <cc:Agent>
            <dc:title>Ohsin</dc:title>
          </cc:Agent>
        </dc:creator>
        <cc:license
           rdf:resource="http://creativecommons.org/licenses/by-sa/4.0/" />
      </cc:Work>
      <cc:License
         rdf:about="http://creativecommons.org/licenses/by-sa/4.0/">
        <cc:permits
           rdf:resource="http://creativecommons.org/ns#Reproduction" />
        <cc:permits
           rdf:resource="http://creativecommons.org/ns#Distribution" />
        <cc:requires
           rdf:resource="http://creativecommons.org/ns#Notice" />
        <cc:requires
           rdf:resource="http://creativecommons.org/ns#Attribution" />
        <cc:permits
           rdf:resource="http://creativecommons.org/ns#DerivativeWorks" />
        <cc:requires
           rdf:resource="http://creativecommons.org/ns#ShareAlike" />
      </cc:License>
    </rdf:RDF>
  </metadata>
  <defs
     id="defs14" />
  <g
     inkscape:label="Layer 2"
     id="layer3"
     inkscape:groupmode="layer"
     style="display:inline;opacity:0.97000002"
     transform="translate(-75.00389,338.84046)">
    <g
       id="g828"
       transform="matrix(2.6119437,0,0,2.6119437,-161.19048,-260.59156)">
      <path
         sodipodi:nodetypes="cccccccccccccccccccccccccccccccccccc"
         inkscape:connector-curvature="0"
         id="circle5322"
         d="m 204.32227,94.666016 c 0,14.183234 -7.89701,26.510354 -19.53711,32.826174 -1.01845,1.40541 -2.19987,2.68517 -3.51954,3.8125 14.65707,-5.71691 25.05665,-19.96657 25.05665,-36.638674 -0.79813,0 -1.2466,0 -2,0 z m -4.61329,0 c 0,9.871694 -4.36993,18.709864 -11.27539,24.705074 -0.25392,1.14692 -0.59943,2.27162 -1.0332,3.36329 8.66714,-6.3129 14.30859,-16.53446 14.30859,-28.068364 -0.79945,0.01007 -1.24206,0 -2,0 z m -4.61329,0 c 0,6.711494 -2.35019,12.867754 -6.26953,17.697264 0.086,0.75357 0.13296,1.5111 0.14063,2.26953 -0.007,0.20652 -0.0179,0.41292 -0.0312,0.61914 5.05629,-5.38502 8.16015,-12.62393 8.16015,-20.585934 -0.77963,0 -1.24664,0 -2.00005,0 z m -4.61131,0 c 0,4.274345 -1.14377,8.276054 -3.13477,11.726564 0.32463,0.79425 0.60245,1.60684 0.83203,2.43359 2.71614,-4.05173 4.30274,-8.92175 4.30274,-14.160154 -1.07401,0 -1.18235,0 -2,0 z m -4.61329,0 c 0,2.413716 -0.46763,4.711719 -1.29101,6.832034 0.47357,0.63595 0.91236,1.29707 1.31445,1.98047 1.25471,-2.68103 1.97656,-5.660373 1.97656,-8.812504 -0.9425,0 -1.14638,0 -2,0 z m -4.61328,0 c 0,1.030721 -0.11345,2.033807 -0.32031,3.001953 0.5816,0.47697 1.13833,0.983496 1.66797,1.517578 0.41663,-1.436694 0.65234,-2.950048 0.65234,-4.519531 -0.93402,0 -1.12712,0 -2,0 z m -4.61328,0 c 0,0.08636 -0.009,0.170052 -0.0117,0.255859 0.66134,0.322888 1.30603,0.678805 1.93164,1.066406 0.0494,-0.434361 0.0801,-0.874947 0.0801,-1.322265 -0.87245,0 -0.94203,0 -2.00004,0 z"
         style="color:#000000;font-style:normal;font-variant:normal;font-weight:normal;font-stretch:normal;font-size:medium;line-height:normal;font-family:sans-serif;font-variant-ligatures:normal;font-variant-position:normal;font-variant-caps:normal;font-variant-numeric:normal;font-variant-alternates:normal;font-feature-settings:normal;text-indent:0;text-align:start;text-decoration:none;text-decoration-line:none;text-decoration-style:solid;text-decoration-color:#000000;letter-spacing:normal;word-spacing:normal;text-transform:none;writing-mode:lr-tb;direction:ltr;text-orientation:mixed;dominant-baseline:auto;baseline-shift:baseline;text-anchor:start;white-space:normal;shape-padding:0;clip-rule:nonzero;display:inline;overflow:visible;visibility:visible;opacity:1;isolation:auto;mix-blend-mode:normal;color-interpolation:sRGB;color-interpolation-filters:linearRGB;solid-color:#000000;solid-opacity:1;vector-effect:none;fill:#000000;fill-opacity:1;fill-rule:nonzero;stroke:none;stroke-width:2;stroke-linecap:butt;stroke-linejoin:miter;stroke-miterlimit:4;stroke-dasharray:none;stroke-dashoffset:0;stroke-opacity:1;color-rendering:auto;image-rendering:auto;shape-rendering:auto;text-rendering:auto;enable-background:accumulate" />
      <g
         transform="matrix(1.1646117,0,-0.06077077,1.0061344,165.82572,2.1278932)"
         id="g5853">
        <path
           style="fill:none;stroke:#000000;stroke-width:1.38571107;stroke-linecap:butt;stroke-linejoin:miter;stroke-miterlimit:4;stroke-dasharray:none;stroke-opacity:1"
           d="m -27.384111,107.37613 c 1.328462,-1.42054 2.275681,-4.45894 2.871603,-5.92461 0.595922,-1.465671 1.046693,-2.749146 0.302181,-3.573739 -0.744512,-0.824593 -2.083536,-0.539773 -2.90889,-0.1687 -0.825354,0.371073 -1.900951,1.262262 -1.801254,-0.03394 0.0997,-1.296202 0.816995,-0.978944 1.789267,-1.651534 0.972272,-0.67259 3.075366,-1.583518 3.777675,-2.566411 0.702309,-0.982893 0.391391,-1.106532 1.955645,-1.163186 1.564254,-0.05665 1.047281,-1.867703 2.512123,-2.398451 1.464842,-0.530748 1.312623,-2.769039 0.331449,-3.549622 -0.981174,-0.780583 -1.856137,-1.751477 -2.791784,-2.770824 -0.935647,-1.019347 -1.74983,-1.400312 -1.752724,-2.752058 -0.0029,-1.351746 -0.821666,-2.239055 0.371487,-2.142281 1.193153,0.09677 2.431421,2.044171 2.92074,3.238652 0.489319,1.194481 2.289251,-1.113288 3.029956,-0.340593 0.740705,0.772695 1.43727,0.961568 2.505321,0.944071 1.068051,-0.0175 2.311045,0.0825 3.482559,0.474192 1.1715136,0.391697 2.752817,-1.873715 3.8883518,-1.193528 1.1355348,0.680187 0.5824194,0.340966 0.7342125,1.423819 0.1517931,1.082853 0.3922015,0.688238 0.8534759,1.98055 0.4612744,1.292312 1.9297576,-0.03371 1.8218002,1.68915 -0.1079574,1.722859 1.3984752,3.724674 2.1404647,5.566978 0.72683664,1.804679 1.78466219,4.355736 2.26353896,5.37298 0.47887674,1.017244 1.30778964,2.186165 1.91165684,1.798892 0.6038672,-0.387277 1.2425773,-0.528002 1.9214769,-2.400231 0.46873,-1.292637 0.3668195,-3.638378 0.617551,-4.686297 0.3584228,-1.498009 0.630897,-0.765716 1.9130074,-3.022741 1.2821103,-2.257026 1.2065251,-3.277037 2.0623674,-4.146573 0.8558424,-0.869536 0.7585094,-2.173299 1.6512044,-2.627975 0.892695,-0.454676 2.74397,-0.08898 3.415761,0.915172 0.671791,1.004149 2.26007,3.000414 3.105309,4.031314 0.845239,1.0309 1.475998,1.138453 2.425205,1.842445 0.949207,0.703991 0.701619,1.608467 1.360619,1.848387 0.505055,0.183874 0.585222,0.19092 1.473732,-0.500421 0.888511,-0.691341 1.557465,-1.381578 1.971422,-2.831632 0.413958,-1.450054 1.025942,0.313524 1.033777,0.702218 0.0078,0.388694 -0.243082,3.082378 0.342606,2.379745 0.585689,-0.702633 1.941455,-2.129491 1.96386,-3.582301 0.0224,-1.45281 -0.2324,-1.99482 0.670009,-2.575872 0.90241,-0.581052 1.69269,-1.20784 1.942691,-2.400845 0.250002,-1.193005 1.143599,-0.874928 1.788114,-0.374458 0.644516,0.50047 0.295642,2.74371 0.663012,1.915073 0.36737,-0.828637 1.344535,-2.694902 0.971438,-3.608676 -0.373096,-0.913774 -2.523176,1.068951 -2.413217,0.131576 0.109959,-0.937375 1.127392,-2.565998 1.199748,-3.770461 0.07236,-1.204463 -0.246868,-1.371651 -1.084628,-2.813464 -0.837759,-1.441813 -3.307113,-4.206573 -4.107334,-5.654808 -0.80022,-1.448235 -0.407913,-2.302575 0.304827,-0.742198 0.71274,1.560377 1.864819,1.548941 3.537341,3.833744 1.672522,2.284803 1.234574,-1.963685 0.271632,-2.428818 -0.962941,-0.465133 0.668326,-2.413615 -0.906924,-2.309626 -1.575249,0.103989 0.182488,-2.418032 0.281739,-3.216507"
           id="path5835"
           inkscape:connector-curvature="0"
           sodipodi:nodetypes="czzzzzzzzzzzzzzzzzzzzaszsszzzzzzazzzzzzzzzzzzzzzzzzc" />
        <path
           style="fill:none;stroke:#000000;stroke-width:1.38571107;stroke-linecap:butt;stroke-linejoin:miter;stroke-miterlimit:4;stroke-dasharray:none;stroke-opacity:1"
           d="m 31.030217,91.228812 c 0,0 0.735163,-1.013456 1.182396,-1.419602 0.515653,-0.468281 1.028603,-1.218302 1.704366,-1.149049 0.502536,0.0515 0.846679,0.693667 1.218923,1.109308 0.397346,0.443669 1.06923,1.462577 1.06923,1.462577"
           id="path5837"
           inkscape:connector-curvature="0"
           sodipodi:nodetypes="caaac" />
        <path
           style="fill:none;stroke:#000000;stroke-width:1.38571107;stroke-linecap:butt;stroke-linejoin:miter;stroke-miterlimit:4;stroke-dasharray:none;stroke-opacity:1"
           d="m 37.299883,73.176034 c 0,0 -1.776652,0.0016 -2.298097,-0.707107 -0.890357,-1.210105 -0.368768,-4.626969 -0.368768,-4.626969"
           id="path5841"
           inkscape:connector-curvature="0"
           sodipodi:nodetypes="cac" />
      </g>
      <path
         sodipodi:nodetypes="zccszsccsssccssccssssccsssscccccssssccsssscccccssssccsssscccccssssccsssscccccssssccsssscccssssssssss"
         inkscape:connector-curvature="0"
         id="rect5158"
         d="m 166.2832,-19.457031 -11.27734,19.53124975 1.73242,1.00000005 11.27539,-19.5312498 c 1.02288,-1.771843 -0.70741,-2.77184 -1.73047,-1 z m -10.66211,9.148437 -4.64843,8.0527346 1.73046,1 4.64844,-8.0527344 c 0.94127,-1.6306122 -0.7892,-2.6306132 -1.73047,-1.0000002 z m 8.06836,4.6601565 -4.64843,8.0507813 1.72851,1 4.64844,-8.0527344 c 0.94105,-1.6302278 -0.78744,-2.6279318 -1.72852,-0.9980469 z M 143.95312,0.5859375 108.625,61.775391 C 103.13559,71.492403 100,82.713934 100,94.666016 c 0,36.991234 30.00877,67.000004 67,67.000004 36.99123,0 67,-30.00877 67,-67.000004 0,-36.991232 -30.00877,-67 -67,-67 -3.20872,0 -6.36061,0.239221 -9.44922,0.675781 l -1.28125,2.220703 c 3.49194,-0.579822 7.07355,-0.896484 10.73047,-0.896484 35.91034,0 65,29.089662 65,65 0,35.910334 -29.08966,65.000004 -65,65.000004 -35.91034,0 -65,-29.08967 -65,-65.000004 0,-11.593706 3.04023,-22.470576 8.35742,-31.890625 L 145.68555,1.5859375 Z m 4.03126,2.328125 -35.32618,61.1894535 c -5.10102,9.035633 -8.04492,19.44957 -8.04492,30.5625 0,34.443554 27.94317,62.386714 62.38672,62.386714 34.44355,0 62.38672,-27.94316 62.38672,-62.386714 0,-34.443554 -27.94317,-62.386719 -62.38672,-62.386719 -4.25959,0 -8.41925,0.429972 -12.43945,1.244141 l -1.36133,2.357421 c 4.43405,-1.036245 9.04993,-1.601562 13.80078,-1.601562 33.36266,0 60.38672,27.024058 60.38672,60.386719 0,33.362654 -27.02406,60.386714 -60.38672,60.386714 -33.36266,0 -60.38672,-27.02406 -60.38672,-60.386714 0,-10.753885 2.85155,-20.821755 7.77734,-29.5625 L 149.71875,3.9140625 Z m 4.0371,2.3300781 -35.32812,61.1894534 c -4.70479,8.359556 -7.4668,17.960684 -7.4668,28.232422 0,31.895874 25.87757,57.773434 57.77344,57.773434 31.89587,0 57.77344,-25.87756 57.77344,-57.773434 0,-31.895876 -25.87757,-57.773438 -57.77344,-57.773438 -5.41925,0 -10.65843,0.763519 -15.63281,2.160156 l -1.45117,2.513672 c 5.38479,-1.729933 11.12249,-2.673828 17.08398,-2.673828 30.81499,0 55.77344,24.958454 55.77344,55.773438 0,30.814984 -24.95845,55.773434 -55.77344,55.773434 -30.81499,0 -55.77344,-24.95845 -55.77344,-55.773434 0,-9.913016 2.66772,-19.169359 7.19922,-27.232422 L 153.75391,6.2441406 Z m 4.03516,2.328125 -35.32812,61.1894534 c -4.31522,7.67861 -6.88868,16.472177 -6.88868,25.904297 0,29.348194 23.81196,53.162104 53.16016,53.162104 29.3482,0 53.16016,-23.81391 53.16016,-53.162104 0,-29.348197 -23.81196,-53.160157 -53.16016,-53.160157 -6.73379,0 -13.16948,1.266334 -19.09961,3.552735 l -1.63867,2.835937 c 6.3395,-2.813291 13.35246,-4.388672 20.73828,-4.388672 28.26731,0 51.16016,22.89285 51.16016,51.160157 0,28.267304 -22.89285,51.162104 -51.16016,51.162104 -28.26731,0 -51.16016,-22.8948 -51.16016,-51.162104 0,-9.07305 2.47946,-17.519852 6.61914,-24.904297 L 157.78711,8.5722656 Z m 4.0332,2.3300782 -35.32812,61.1894532 c -3.92142,7.001251 -6.31055,14.982695 -6.31055,23.574219 0,26.800524 21.74831,48.548824 48.54883,48.548824 26.80052,0 48.54883,-21.7483 48.54883,-48.548824 0,-26.800519 -21.74831,-48.548828 -48.54883,-48.548828 -8.35184,0 -16.21284,2.113218 -23.07812,5.832031 l -2.03711,3.527343 C 149.13059,50.8251 157.74507,48.117188 167,48.117188 c 25.71963,0 46.54883,20.829198 46.54883,46.548828 0,25.719624 -20.8292,46.548824 -46.54883,46.548824 -25.71963,0 -46.54883,-20.8292 -46.54883,-46.548824 0,-8.232888 2.29476,-15.869006 6.04297,-22.574219 L 161.82227,10.902344 Z M 167,50.730469 c -24.25284,0 -43.93555,19.682706 -43.93555,43.935547 0,24.252844 19.68271,43.935544 43.93555,43.935544 24.25284,0 43.93555,-19.6827 43.93555,-43.935544 0,-24.252841 -19.68271,-43.935547 -43.93555,-43.935547 z m 0,2 c 23.17195,0 41.93555,18.763594 41.93555,41.935547 0,23.171954 -18.7636,41.935544 -41.93555,41.935544 -23.17195,0 -41.93555,-18.76359 -41.93555,-41.935544 0,-23.171953 18.7636,-41.935547 41.93555,-41.935547 z"
         style="color:#000000;font-style:normal;font-variant:normal;font-weight:normal;font-stretch:normal;font-size:medium;line-height:normal;font-family:sans-serif;font-variant-ligatures:normal;font-variant-position:normal;font-variant-caps:normal;font-variant-numeric:normal;font-variant-alternates:normal;font-feature-settings:normal;text-indent:0;text-align:start;text-decoration:none;text-decoration-line:none;text-decoration-style:solid;text-decoration-color:#000000;letter-spacing:normal;word-spacing:normal;text-transform:none;writing-mode:lr-tb;direction:ltr;text-orientation:mixed;dominant-baseline:auto;baseline-shift:baseline;text-anchor:start;white-space:normal;shape-padding:0;clip-rule:nonzero;display:inline;overflow:visible;visibility:visible;opacity:1;isolation:auto;mix-blend-mode:normal;color-interpolation:sRGB;color-interpolation-filters:linearRGB;solid-color:#000000;solid-opacity:1;vector-effect:none;fill:#000000;fill-opacity:1;fill-rule:nonzero;stroke:none;stroke-width:3.14437556;stroke-linecap:butt;stroke-linejoin:miter;stroke-miterlimit:4;stroke-dasharray:none;stroke-dashoffset:0;stroke-opacity:1;color-rendering:auto;image-rendering:auto;shape-rendering:auto;text-rendering:auto;enable-background:accumulate" />
    </g>
  </g>
</svg>
