<?xml version="1.0" encoding="UTF-8" standalone="no"?>
<!-- Created with Inkscape (http://www.inkscape.org/) -->
<svg
   xmlns:svg="http://www.w3.org/2000/svg"
   xmlns="http://www.w3.org/2000/svg"
   xmlns:xlink="http://www.w3.org/1999/xlink"
   version="1.0"
   width="400"
   height="360"
   id="svg2433">
  <defs
     id="defs2435">
    <linearGradient
       id="g_background">
      <stop
         style="stop-color:#000000;stop-opacity:0.33333299"
         offset="0"
         id="col_01" />
      <stop
         style="stop-color:#000000;stop-opacity:0.078431"
         offset="1"
         id="col_02" />
    </linearGradient>
    <linearGradient
       x1="92.599998"
       y1="304.5"
       x2="263.79999"
       y2="26.290001"
       id="linearGradient2050"
       xlink:href="#g_background"
       gradientUnits="userSpaceOnUse"
       gradientTransform="matrix(0.851641,-0.524127,0.524127,0.851641,-45.27941,132.512)" />
  </defs>
  <g
     id="g2441">
    <title
       id="title2443">Layer 1</title>
    <path
       d="M 361.8118,80.415833 C 405.81082,151.90878 369.03348,254.45061 279.6673,309.4494 C 190.30112,364.44818 82.18724,351.07703 38.188209,279.58408 C -5.810832,208.09114 30.96651,105.54933 120.33269,50.55053 C 209.69887,-4.448268 317.81274,8.922882 361.8118,80.415833 L 361.8118,80.415833 L 361.8118,80.415833 z "
       style="fill:url(#linearGradient2050);stroke-linejoin:round;stroke-miterlimit:4;stroke-dashoffset:0"
       id="con-struct" />
  </g>
  <path
     d="M 149.4952,157.33813 C 144.199,147.08867 111.3145,141.73096 108.67707,148.60595 C 131.10962,167.36689 147.98979,176.15714 149.4952,157.33813 z "
     style="fill:#ffffff;fill-opacity:1;fill-rule:evenodd;stroke:#000000;stroke-width:3.00000596;stroke-linejoin:miter;stroke-miterlimit:4;stroke-dasharray:none;stroke-opacity:1"
     id="path3420" />
  <path
     d="M 181.24089,120.00706 L 170.56426,121.64008 L 147.8221,157.22697 L 163.47374,159.57796 L 181.24089,120.00706 z "
     style="fill:#ffffff;fill-opacity:1;fill-rule:evenodd;stroke:#000000;stroke-width:3.00000596;stroke-linejoin:miter;stroke-miterlimit:4;stroke-dasharray:none;stroke-opacity:1"
     id="path3426" />
  <path
     d="M 183.68297,121.57578 L 148.43814,156.36357 L 130.68654,162.37316 L 135.97401,182.47598 L 342.40773,187.39993 L 338.17377,169.95977 C 320.0637,160.88894 301.29048,153.97738 281.08631,151.72492 L 216.71037,154.17476 L 195.20855,124.41387 L 183.68297,121.57578 z "
     style="fill:#ffffff;fill-opacity:1;fill-rule:evenodd;stroke:none;stroke-width:1;stroke-linejoin:miter;stroke-miterlimit:4;stroke-dasharray:none;stroke-opacity:1"
     id="path3449" />
  <path
     d="M 212.29949,154.3735 C 200.89197,140.74837 195.68928,122.3642 184.78532,123.3178 L 169.88421,155.88795 L 162.24192,156.13043 L 167.93018,146.21032 L 166.9515,145.20801 L 180.59124,119.45667 C 200.79769,117.1459 204.0162,133.95803 219.04046,154.02326 L 212.29949,154.3735 z "
     style="fill:#000000;fill-opacity:1;fill-rule:evenodd;stroke:none;stroke-width:1;stroke-linejoin:miter;stroke-miterlimit:4;stroke-dasharray:none;stroke-opacity:1"
     id="path3424" />
  <path
     d="M 332.95398,185.43206 L 272.08471,165.8018 L 136.78911,169.15954 L 134.15692,165.5442 L 49.961349,116.76225 L 33.302132,121.11911 L 81.572846,161.20665 C 78.703999,166.05994 77.36446,171.63298 77.192034,177.7553 C 73.09766,182.22255 74.453109,185.95277 76.236445,189.62513 L 86.410749,186.20045 L 86.44514,189.1349 L 81.710653,189.31817 L 78.499957,195.58329 L 78.533566,196.99707 L 77.047303,199.9323 L 77.919883,202.42243 L 80.328357,202.57737 C 79.911181,206.76664 81.149668,210.73199 84.958047,214.34979 L 87.053123,212.47871 L 87.94133,213.39476 L 90.595591,211.98781 L 93.719352,212.47938 L 89.285381,221.58506 L 108.38131,228.7338 L 102.51228,276.38567 L 145.02498,257.52041 L 200.75693,220.38623 L 315.59859,204.05265 L 332.95398,185.43206 z "
     style="fill:#c2c2c2;fill-opacity:1;fill-rule:evenodd;stroke:none;stroke-width:1;stroke-linejoin:miter;stroke-miterlimit:4;stroke-dasharray:none;stroke-opacity:1"
     id="path3445" />
  <path
     d="M 112.99682,224.54016 L 109.88986,224.75547 L 87.723524,277.12681 L 100.02007,276.69304 L 129.99267,219.46801 L 112.99682,224.54016 z "
     style="fill:#ffffff;fill-opacity:1;fill-rule:evenodd;stroke:#000000;stroke-width:3.00000596;stroke-linejoin:miter;stroke-miterlimit:4;stroke-dasharray:none;stroke-opacity:1"
     id="path3430" />
  <path
     d="M 125.87744,168.47303 L 123.04004,161.61798 L 48.702478,118.77355 C 43.667254,119.75405 38.654026,121.0005 33.557025,121.23414 C 29.871622,121.52861 30.617074,116.65412 33.694877,115.82834 L 34.089189,116.2702 L 52.965679,112.97073 C 56.486777,112.32074 54.802557,116.65211 53.282066,117.86448 C 79.71348,131.13983 105.96416,144.74093 131.76391,159.06301 C 133.77635,160.22959 135.69599,161.3175 136.94104,164.98267 C 137.25784,165.96124 136.99025,167.46206 135.10688,168.26195 C 132.01577,168.62289 128.96066,169.00913 125.87744,168.47303 z "
     style="fill:#000000;fill-opacity:1;fill-rule:evenodd;stroke:none;stroke-width:0.5;stroke-linecap:butt;stroke-linejoin:miter;stroke-miterlimit:4;stroke-dasharray:none;stroke-opacity:1"
     id="path3307" />
  <path
     d="M 39.568036,125.85046 L 46.521671,125.29615 L 90.111998,158.91715 L 79.319308,158.64325 L 39.568036,125.85046 z "
     style="fill:none;fill-opacity:1;fill-rule:evenodd;stroke:#000000;stroke-width:0.50000095;stroke-linejoin:miter;stroke-miterlimit:4;stroke-dasharray:none;stroke-opacity:1"
     id="path3313" />
  <path
     d="M 68.493558,142.10245 L 63.843092,145.82018"
     style="fill:none;fill-opacity:1;fill-rule:evenodd;stroke:#000000;stroke-width:1.00000191;stroke-linejoin:miter;stroke-miterlimit:4;stroke-dasharray:none;stroke-opacity:1"
     id="path3315" />
  <path
     d="M 85.970696,161.73866 L 82.230108,160.58983 C 78.662766,165.17825 77.193771,171.33226 77.176012,178.56906 L 81.352498,180.20264 C 80.617328,172.93635 81.567783,166.49386 85.970696,161.73866 z "
     style="fill:none;fill-opacity:1;fill-rule:evenodd;stroke:#000000;stroke-width:3.00000596;stroke-linejoin:miter;stroke-miterlimit:4;stroke-dasharray:none;stroke-opacity:1"
     id="path3319" />
  <path
     d="M 86.177842,180.86595 L 81.385321,180.09577 C 81.338123,173.5954 81.596081,167.14305 85.641669,161.28675 L 88.92194,162.41116 C 84.891582,168.69154 84.870094,174.80621 86.177842,180.86595 z "
     style="fill:none;fill-opacity:1;fill-rule:evenodd;stroke:#000000;stroke-width:3.00000596;stroke-linejoin:miter;stroke-miterlimit:4;stroke-dasharray:none;stroke-opacity:1"
     id="path3321" />
  <path
     d="M 92.373939,161.83399 L 89.077656,161.52335 C 86.35602,167.64034 84.392239,173.82335 85.881644,180.30716 L 89.166384,174.18174 C 88.164513,169.63019 90.221455,165.72204 92.373939,161.83399 z "
     style="fill:none;fill-opacity:1;fill-rule:evenodd;stroke:#000000;stroke-width:3.00000596;stroke-linejoin:miter;stroke-miterlimit:4;stroke-dasharray:none;stroke-opacity:1"
     id="path3323" />
  <path
     d="M 91.963251,162.40959 L 94.100727,163.06607 C 91.992472,165.59789 91.934726,168.74526 91.664139,172.14195 L 89.380133,174.24739 C 88.658405,169.81534 90.503519,166.17165 91.963251,162.40959 z "
     style="fill:none;fill-opacity:1;fill-rule:evenodd;stroke:#000000;stroke-width:3.00000596;stroke-linejoin:miter;stroke-miterlimit:4;stroke-dasharray:none;stroke-opacity:1"
     id="path3325" />
  <path
     d="M 98.624197,164.37396 L 94.85696,162.63804 C 92.672411,165.19731 92.164963,169.81021 91.35225,174.0493 L 95.373687,172.80341 C 95.990899,169.69057 96.739463,166.66308 98.624197,164.37396 z "
     style="fill:none;fill-opacity:1;fill-rule:evenodd;stroke:#000000;stroke-width:3.00000596;stroke-linejoin:miter;stroke-miterlimit:4;stroke-dasharray:none;stroke-opacity:1"
     id="path3327" />
  <path
     d="M 98.192477,172.51133 L 95.112437,173.38477 C 96.003445,169.12773 96.844498,165.71065 98.600762,164.44494 C 96.411051,163.90374 97.023526,162.62415 98.05955,162.71195 L 102.83836,164.92395 C 100.49394,166.59654 98.595314,168.35226 98.192477,172.51133 z "
     style="fill:none;fill-opacity:1;fill-rule:evenodd;stroke:#000000;stroke-width:3.00000596;stroke-linejoin:miter;stroke-miterlimit:4;stroke-dasharray:none;stroke-opacity:1"
     id="path3329" />
  <path
     d="M 86.205402,186.48825 L 76.236445,189.62513 C 73.777307,185.00129 73.933897,180.94042 77.471426,177.6072 L 86.474041,181.42474 C 86.647899,182.50428 86.394385,184.57078 86.205402,186.48825 z "
     style="fill:none;fill-opacity:1;fill-rule:evenodd;stroke:#000000;stroke-width:3.00000596;stroke-linejoin:miter;stroke-miterlimit:4;stroke-dasharray:none;stroke-opacity:1"
     id="path3331" />
  <path
     d="M 87.534875,176.51567 L 97.64843,176.97543 C 95.713871,185.25494 97.409956,190.56949 98.902097,196.05059 L 90.521294,196.95"
     style="fill:none;fill-opacity:1;fill-rule:evenodd;stroke:#000000;stroke-width:3.00000596;stroke-linejoin:miter;stroke-miterlimit:4;stroke-dasharray:none;stroke-opacity:1"
     id="path3333" />
  <path
     d="M 133.3918,173.14995 C 124.26382,171.40726 82.830862,156.99656 86.366931,188.39651 C 87.409711,193.58708 90.349277,198.02716 93.104822,202.54006 C 109.81976,201.75701 130.93542,199.07879 132.50738,193.80134 L 133.3918,173.14995 z "
     style="fill:none;fill-opacity:1;fill-rule:evenodd;stroke:#000000;stroke-width:3.00000596;stroke-linejoin:miter;stroke-miterlimit:4;stroke-dasharray:none;stroke-opacity:1"
     id="path3335" />
  <path
     d="M 132.96631,183.89133 L 125.79892,184.38 L 127.29751,189.4015 L 132.50913,189.94954 L 132.96631,183.89133 z "
     style="fill:none;fill-opacity:1;fill-rule:evenodd;stroke:#000000;stroke-width:3.00000596;stroke-linejoin:miter;stroke-miterlimit:4;stroke-dasharray:none;stroke-opacity:1"
     id="path3337" />
  <path
     d="M 86.425236,188.74522 L 81.694508,189.60787 L 78.431003,195.38694 L 78.722519,197.13046 L 76.933682,199.72365 L 78.051095,202.54783 L 94.255659,202.56271 L 86.425236,188.74522 z "
     style="fill:none;fill-opacity:1;fill-rule:evenodd;stroke:#000000;stroke-width:3.00000596;stroke-linejoin:miter;stroke-miterlimit:4;stroke-dasharray:none;stroke-opacity:1"
     id="path3339" />
  <path
     d="M 80.431577,199.68164 C 80.920651,200.56708 80.88641,201.5227 80.355102,201.81606 C 79.823791,202.10942 78.996606,201.62944 78.507536,200.74399 C 78.018463,199.85854 78.052704,198.90293 78.58401,198.60957 C 79.115322,198.31621 79.942506,198.79619 80.431577,199.68164 L 80.431577,199.68164 z "
     style="fill:#000000;fill-opacity:1;fill-rule:evenodd;stroke:none;stroke-width:1.17944133;stroke-linejoin:miter;stroke-miterlimit:4;stroke-dasharray:none;stroke-opacity:1"
     id="path3341" />
  <path
     d="M 83.377633,199.38516 C 83.892513,200.31733 83.856467,201.32338 83.29712,201.63222 C 82.737773,201.94106 81.866935,201.43574 81.352054,200.50357 C 80.837169,199.5714 80.873219,198.56535 81.432567,198.25651 C 81.991915,197.94767 82.862752,198.45299 83.377633,199.38516 L 83.377633,199.38516 z "
     style="fill:#000000;fill-opacity:1;fill-rule:evenodd;stroke:none;stroke-width:1.17944133;stroke-linejoin:miter;stroke-miterlimit:4;stroke-dasharray:none;stroke-opacity:1"
     id="path3343" />
  <path
     d="M 86.126814,199.3198 C 86.641695,200.25197 86.605649,201.25802 86.046301,201.56686 C 85.486955,201.8757 84.616116,201.37039 84.101235,200.43822 C 83.58635,199.50605 83.622401,198.5 84.181748,198.19116 C 84.741096,197.88232 85.611933,198.38763 86.126814,199.3198 L 86.126814,199.3198 z "
     style="fill:#000000;fill-opacity:1;fill-rule:evenodd;stroke:none;stroke-width:1.17944133;stroke-linejoin:miter;stroke-miterlimit:4;stroke-dasharray:none;stroke-opacity:1"
     id="path3345" />
  <path
     d="M 88.992051,198.87657 C 89.506932,199.80874 89.470885,200.81479 88.911538,201.12363 C 88.352191,201.43247 87.481353,200.92716 86.966472,199.99499 C 86.451587,199.06282 86.487638,198.05677 87.046985,197.74793 C 87.606333,197.43909 88.47717,197.9444 88.992051,198.87657 L 88.992051,198.87657 z "
     style="fill:#000000;fill-opacity:1;fill-rule:evenodd;stroke:none;stroke-width:1.17944133;stroke-linejoin:miter;stroke-miterlimit:4;stroke-dasharray:none;stroke-opacity:1"
     id="path3347" />
  <path
     d="M 83.339853,191.53964 C 82.979123,192.37777 82.240356,192.87392 81.689769,192.64781 C 81.139181,192.4217 80.985271,191.55896 81.345997,190.72083 C 81.706726,189.8827 82.445496,189.38656 82.996085,189.61266 C 83.546668,189.83877 83.700583,190.70151 83.339853,191.53964 L 83.339853,191.53964 z "
     style="fill:#000000;fill-opacity:1;fill-rule:evenodd;stroke:none;stroke-width:1.17944133;stroke-linejoin:miter;stroke-miterlimit:4;stroke-dasharray:none;stroke-opacity:1"
     id="path3349" />
  <path
     d="M 85.679233,191.85658 C 85.022794,192.49035 84.149726,192.66267 83.729189,192.24146 C 83.308653,191.82024 83.499894,190.96501 84.156333,190.33123 C 84.812776,189.69745 85.685844,189.52514 86.106381,189.94635 C 86.526916,190.36756 86.335676,191.2228 85.679233,191.85658 L 85.679233,191.85658 z "
     style="fill:#000000;fill-opacity:1;fill-rule:evenodd;stroke:none;stroke-width:1.17944133;stroke-linejoin:miter;stroke-miterlimit:4;stroke-dasharray:none;stroke-opacity:1"
     id="path3351" />
  <path
     d="M 87.76241,191.59573 C 87.294452,192.32162 86.553616,192.66928 86.107708,192.37226 C 85.661799,192.07523 85.679671,191.24599 86.147628,190.5201 C 86.615581,189.79421 87.356418,189.44655 87.802326,189.74358 C 88.248234,190.0406 88.230363,190.86984 87.76241,191.59573 L 87.76241,191.59573 z "
     style="fill:#000000;fill-opacity:1;fill-rule:evenodd;stroke:none;stroke-width:1.17944133;stroke-linejoin:miter;stroke-miterlimit:4;stroke-dasharray:none;stroke-opacity:1"
     id="path3353" />
  <path
     d="M 79.952648,193.12518 L 87.903789,193.08621"
     style="fill:none;fill-opacity:1;fill-rule:evenodd;stroke:#000000;stroke-width:3.00000596;stroke-linejoin:miter;stroke-miterlimit:4;stroke-dasharray:none;stroke-opacity:1"
     id="path3355" />
  <path
     d="M 104.06276,210.21772 C 102.19348,207.62958 101.73398,204.29416 101.71523,200.7251 L 96.684539,200.34959 C 97.843286,204.5794 98.17196,209.39156 101.94287,211.78879 L 104.06276,210.21772 z "
     style="fill:none;fill-opacity:1;fill-rule:evenodd;stroke:#000000;stroke-width:2.00000381;stroke-linejoin:miter;stroke-miterlimit:4;stroke-dasharray:none;stroke-opacity:1"
     id="path3357" />
  <path
     d="M 100.12523,209.71013 L 98.161847,211.91404 C 94.648538,209.1833 93.413364,205.245 93.996671,200.34276 L 96.725763,200.59616 C 97.209471,203.89111 97.891793,207.10747 100.12523,209.71013 z "
     style="fill:none;fill-opacity:1;fill-rule:evenodd;stroke:#000000;stroke-width:2.00000381;stroke-linejoin:miter;stroke-miterlimit:4;stroke-dasharray:none;stroke-opacity:1"
     id="path3359" />
  <path
     d="M 96.961024,210.49264 L 94.997638,212.69654 C 92.30676,209.38074 90.441656,205.62722 90.71719,200.739 L 94.153171,200.9756 C 93.870177,204.35175 94.000074,207.65886 96.961024,210.49264 z "
     style="fill:none;fill-opacity:1;fill-rule:evenodd;stroke:#000000;stroke-width:3.00000596;stroke-linejoin:miter;stroke-miterlimit:4;stroke-dasharray:none;stroke-opacity:1"
     id="path3361" />
  <path
     d="M 93.862469,211.0614 L 92.030377,212.83782 C 88.584327,210.57761 87.465391,206.33297 86.952969,201.57114 L 90.750797,202.15278 C 91.061512,205.13959 91.686477,208.11893 93.862469,211.0614 z "
     style="fill:none;fill-opacity:1;fill-rule:evenodd;stroke:#000000;stroke-width:3.00000596;stroke-linejoin:miter;stroke-miterlimit:4;stroke-dasharray:none;stroke-opacity:1"
     id="path3363" />
  <path
     d="M 90.484514,211.77826 L 88.052407,213.6043 C 85.77056,210.05335 83.608786,206.4879 84.183431,202.59182 L 87.010997,202.5246 C 87.385581,205.74011 88.154088,208.88976 90.484514,211.77826 z "
     style="fill:none;fill-opacity:1;fill-rule:evenodd;stroke:#000000;stroke-width:3.00000596;stroke-linejoin:miter;stroke-miterlimit:4;stroke-dasharray:none;stroke-opacity:1"
     id="path3365" />
  <path
     d="M 84.290306,202.62464 C 83.820197,205.94788 85.344777,209.05706 87.098159,212.14168 L 85.060721,214.20589 C 82.526449,210.94634 80.053587,207.6488 80.155835,202.75829 L 84.290306,202.62464 z "
     style="fill:none;fill-opacity:1;fill-rule:evenodd;stroke:#000000;stroke-width:3.00000596;stroke-linejoin:miter;stroke-miterlimit:4;stroke-dasharray:none;stroke-opacity:1"
     id="path3367" />
  <path
     d="M 337.42298,169.07488 C 344.20277,171.6405 352.91446,175.94005 356.50591,182.87493 C 360.34308,192.805 346.38957,196.29023 338.14892,201.71611 C 331.76968,205.18235 325.0753,205.71218 318.47141,207.08516 C 292.78087,212.00005 267.27421,217.03444 239.8271,220.80779 C 203.80709,225.92735 179.19705,238.46656 141.7496,262.79962 C 122.79209,274.48744 104.28465,282.27437 87.191925,277.80012 C 88.893576,275.90856 93.766458,275.31552 98.419555,274.63248 L 126.84858,220.84286 L 142.02746,215.58075 L 108.71657,270.18661 C 134.04073,261.62466 161.18942,242.65923 176.97814,229.95384 L 183.76212,220.79023 L 179.34,211.49291 L 295.79037,203.92337 L 292.32806,194.66686 L 317.75534,191.07375 L 317.2661,187.09093 L 322.40655,187.01571 L 323.22697,188.84313 L 328.42383,188.1437 L 330.14026,180.4009 C 326.79574,177.5023 334.65987,168.55396 337.42298,169.07488 z "
     style="fill:#000000;fill-opacity:1;fill-rule:evenodd;stroke:none;stroke-width:0.5;stroke-linejoin:miter;stroke-miterlimit:4;stroke-dasharray:none;stroke-opacity:1"
     id="path3371" />
  <path
     d="M 320.44895,180.07101 L 323.64677,180.70228 C 324.44689,180.81089 325.1102,181.14619 325.24226,182.36185 L 324.76671,184.67185 C 324.71521,186.2064 323.76462,186.70125 323.14836,186.51391 L 320.23834,186.08799 C 318.87781,185.94478 318.58485,184.84157 318.58482,183.47495 L 318.60846,181.49398 C 318.74915,180.12768 319.55045,180.00766 320.44895,180.07101 z "
     style="fill:#000000;fill-opacity:1;fill-rule:evenodd;stroke:none;stroke-width:0.5;stroke-linejoin:miter;stroke-miterlimit:4;stroke-dasharray:none;stroke-opacity:1"
     id="path3373" />
  <path
     d="M 133.4841,199.72233 L 273.99355,193.28771 C 277.14964,197.66795 278.0947,201.89646 277.15261,206.42127"
     style="fill:none;fill-opacity:1;fill-rule:evenodd;stroke:#000000;stroke-width:5.00000954;stroke-linejoin:miter;stroke-miterlimit:4;stroke-dasharray:none;stroke-opacity:1"
     id="path3375" />
  <path
     d="M 284.25535,152.08405 C 272.34226,159.88252 264.02082,175.49727 273.72135,192.84499"
     style="fill:none;fill-opacity:1;fill-rule:evenodd;stroke:#000000;stroke-width:2.00000381;stroke-linejoin:miter;stroke-miterlimit:4;stroke-dasharray:none;stroke-opacity:1"
     id="path3377" />
  <path
     d="M 138.18452,165.37773 L 274.53205,161.64134"
     style="fill:none;fill-opacity:1;fill-rule:evenodd;stroke:#000000;stroke-width:1.00000191;stroke-linejoin:miter;stroke-miterlimit:4;stroke-dasharray:none;stroke-opacity:1"
     id="path3379" />
  <path
     d="M 251.82357,153.20511 C 234.32541,162.48503 234.67672,183.30107 239.99946,194.39683"
     style="fill:none;fill-opacity:1;fill-rule:evenodd;stroke:#000000;stroke-width:1.00000191;stroke-linejoin:miter;stroke-miterlimit:4;stroke-dasharray:none;stroke-opacity:1"
     id="path3381" />
  <path
     d="M 216.59026,154.29275 C 197.26207,160.84195 195.25606,184.86019 202.6275,195.98543"
     style="fill:none;fill-opacity:1;fill-rule:evenodd;stroke:#000000;stroke-width:1.00000191;stroke-linejoin:miter;stroke-miterlimit:4;stroke-dasharray:none;stroke-opacity:1"
     id="path3383" />
  <path
     d="M 183.46107,155.53043 C 168.34021,159.7575 156.6962,174.24652 168.55692,197.59557"
     style="fill:none;fill-opacity:1;fill-rule:evenodd;stroke:#000000;stroke-width:1.00000191;stroke-linejoin:miter;stroke-miterlimit:4;stroke-dasharray:none;stroke-opacity:1"
     id="path3385" />
  <path
     d="M 134.09121,199.41516 C 130.77487,186.10654 131.454,172.30536 139.81464,162.46953"
     style="fill:none;fill-opacity:1;fill-rule:evenodd;stroke:#000000;stroke-width:1.00000191;stroke-linejoin:miter;stroke-miterlimit:4;stroke-dasharray:none;stroke-opacity:1"
     id="path3387" />
  <path
     d="M 338.81488,170.07919 C 321.45467,161.49027 300.3673,152.75916 280.74454,151.66738 L 151.92426,156.43016 C 142.7635,156.24056 139.8278,162.29727 136.27206,168.08018"
     style="fill:none;fill-opacity:1;fill-rule:evenodd;stroke:#000000;stroke-width:2.00000381;stroke-linejoin:miter;stroke-miterlimit:4;stroke-dasharray:none;stroke-opacity:1"
     id="path3389" />
  <path
     d="M 111.63404,224.60542 L 140.81832,215.20938 L 181.41984,212.46248"
     style="fill:none;fill-opacity:1;fill-rule:evenodd;stroke:#000000;stroke-width:5.00000954;stroke-linejoin:miter;stroke-miterlimit:4;stroke-dasharray:none;stroke-opacity:1"
     id="path3391" />
  <path
     d="M 329.57712,170.38668 C 330.30875,169.95588 330.22946,169.45687 329.21316,168.87904 L 325.31487,166.76204 C 321.38333,168.8895 319.64502,172.68763 318.07207,176.61173 L 323.70482,177.9282 C 324.39456,178.1903 324.97438,178.1024 325.23296,176.99164 C 326.11114,174.03098 327.48257,171.72727 329.57712,170.38668 z M 323.55323,175.43768 C 323.44772,175.62566 323.09889,175.63286 322.77461,175.45374 C 322.45033,175.27463 322.27278,174.9767 322.37829,174.78872 C 322.48381,174.60074 322.83264,174.59356 323.15692,174.77267 C 323.4812,174.95178 323.65876,175.2497 323.55323,175.43768 z M 325.07607,172.41801 C 324.98902,172.61522 324.64249,172.65576 324.30255,172.5085 C 323.96262,172.36125 323.75738,172.08167 323.84442,171.88446 C 323.93147,171.68725 324.278,171.64671 324.61794,171.79397 C 324.95788,171.94123 325.16312,172.22079 325.07607,172.41801 z M 326.86063,170.12994 C 326.77359,170.32715 326.42705,170.36769 326.08712,170.22043 C 325.74718,170.07317 325.54194,169.7936 325.62899,169.59639 C 325.71603,169.39918 326.06257,169.35864 326.4025,169.5059 C 326.74244,169.65316 326.94768,169.93272 326.86063,170.12994 z "
     style="fill:#000000;fill-opacity:1;fill-rule:evenodd;stroke:none;stroke-width:0.5;stroke-linejoin:miter;stroke-miterlimit:4;stroke-opacity:1"
     id="path3393" />
  <path
     d="M 288.4586,173.98846 L 286.4406,173.89497 C 285.22496,173.64543 284.76327,174.11482 284.75201,175.01373 L 284.18717,179.51845 C 283.85198,182.28831 284.99378,182.38941 286.01361,182.71089 L 290.21412,183.12382 C 291.62351,183.08784 292.46622,182.5644 291.91032,180.83785 L 290.04149,175.11786 C 289.74027,174.32236 289.11531,174.12603 288.4586,173.98846 z "
     style="fill:#000000;fill-opacity:1;fill-rule:evenodd;stroke:none;stroke-width:0.5;stroke-linejoin:miter;stroke-miterlimit:4;stroke-dasharray:none;stroke-opacity:1"
     id="path3406" />
  <path
     d="M 295.45189,170.6394 C 294.78124,170.10549 294.1929,169.37564 292.96517,170.16805 L 291.77393,171.38108 C 290.92562,172.11466 290.61045,173.01198 291.04379,174.13919 L 293.21264,179.83437 C 293.36382,180.67493 294.97162,181.72323 295.72838,180.78245 L 298.50855,176.4903 C 299.1746,175.39898 299.52554,174.42109 298.79898,173.83105 L 295.45189,170.6394 z "
     style="fill:#000000;fill-opacity:1;fill-rule:evenodd;stroke:none;stroke-width:0.5;stroke-linejoin:miter;stroke-miterlimit:4;stroke-dasharray:none;stroke-opacity:1"
     id="path3408" />
  <path
     d="M 297.2828,166.582 C 297.95888,166.03087 298.47643,165.99586 298.93475,166.15372 L 304.26204,167.84835 C 305.64461,168.05523 305.12486,170.01339 304.63727,170.24422 L 301.19866,172.87221 C 300.49837,173.64373 299.53424,173.172 298.5188,172.4585 L 295.69387,169.66112 C 295.24368,168.93566 294.89922,168.19651 296.20225,167.24425 L 297.2828,166.582 z "
     style="fill:#000000;fill-opacity:1;fill-rule:evenodd;stroke:none;stroke-width:0.5;stroke-linejoin:miter;stroke-miterlimit:4;stroke-dasharray:none;stroke-opacity:1"
     id="path3410" />
  <path
     d="M 300.83014,159.60159 C 299.72023,159.36054 299.02352,159.62944 298.84575,160.92189 L 298.83012,162.49598 C 298.80826,163.34266 299.09937,164.02345 300.00652,164.3777 L 304.0395,166.66893 C 305.65077,167.67159 306.80413,167.14108 306.80483,165.47153 L 306.26429,161.32905 C 306.01301,160.4907 305.54078,159.79217 304.13864,159.68208 L 300.83014,159.60159 z "
     style="fill:#000000;fill-opacity:1;fill-rule:evenodd;stroke:none;stroke-width:0.5;stroke-linejoin:miter;stroke-miterlimit:4;stroke-dasharray:none;stroke-opacity:1"
     id="path3412" />
  <path
     d="M 306.48829,157.36289 C 306.6633,157.88167 306.94794,159.23617 305.23981,159.14312 L 300.07743,158.43477 C 299.16999,158.49382 298.51955,158.21951 298.38766,157.27255 L 297.9628,154.27666 L 306.48829,157.36289 z "
     style="fill:#000000;fill-opacity:1;fill-rule:evenodd;stroke:none;stroke-width:0.5;stroke-linejoin:miter;stroke-miterlimit:4;stroke-dasharray:none;stroke-opacity:1"
     id="path3414" />
  <path
     d="M 286.94533,156.44826 L 283.60401,156.47464 C 282.95526,156.52265 281.94226,156.36632 282.39636,157.74111 L 283.75446,161.31601 C 286.77346,162.65543 289.14914,161.28856 288.98932,159.12274 L 286.94533,156.44826 z "
     style="fill:#000000;fill-opacity:1;fill-rule:evenodd;stroke:none;stroke-width:0.5;stroke-linejoin:miter;stroke-miterlimit:4;stroke-dasharray:none;stroke-opacity:1"
     id="path3416" />
  <path
     d="M 279.13945,162.06228 C 277.96445,162.07315 277.79162,162.60301 278.09211,163.37798 C 278.55577,164.44229 279.14874,165.46802 279.12539,166.67768 C 283.33595,167.76323 284.64195,166.85794 284.74691,165.12946 L 283.00674,161.84657 L 279.13945,162.06228 z "
     style="fill:#000000;fill-opacity:1;fill-rule:evenodd;stroke:none;stroke-width:0.5;stroke-linejoin:miter;stroke-miterlimit:4;stroke-dasharray:none;stroke-opacity:1"
     id="path3418" />
  <path
     d="M 133.20002,161.9266 C 136.29695,160.45965 138.50464,160.81097 140.98813,161.34135"
     style="fill:none;fill-opacity:1;fill-rule:evenodd;stroke:#000000;stroke-width:3.00000596;stroke-linejoin:miter;stroke-miterlimit:4;stroke-dasharray:none;stroke-opacity:1"
     id="path3422" />
  <path
     d="M 154.37635,147.31055 L 169.74625,145.24767"
     style="fill:none;fill-opacity:1;fill-rule:evenodd;stroke:#000000;stroke-width:3.00000596;stroke-linejoin:miter;stroke-miterlimit:4;stroke-dasharray:none;stroke-opacity:1"
     id="path3428" />
  <path
     d="M 99.644092,248.97619 L 113.65062,249.0676"
     style="fill:none;fill-opacity:1;fill-rule:evenodd;stroke:#000000;stroke-width:3.00000596;stroke-linejoin:miter;stroke-miterlimit:4;stroke-dasharray:none;stroke-opacity:1"
     id="path3432" />
  <path
     d="M 108.12545,228.48982 L 89.208871,221.68762 L 94.120838,211.61827"
     style="fill:none;fill-opacity:1;fill-rule:evenodd;stroke:#000000;stroke-width:3.00000596;stroke-linejoin:miter;stroke-miterlimit:4;stroke-dasharray:none;stroke-opacity:1"
     id="path3434" />
  <path
     d="M 102.1767,211.77685 C 103.49561,217.08877 105.79031,222.70039 107.86958,228.24584"
     style="fill:none;fill-opacity:1;fill-rule:evenodd;stroke:#000000;stroke-width:3.00000596;stroke-linejoin:miter;stroke-miterlimit:4;stroke-dasharray:none;stroke-opacity:1"
     id="path3436" />
  <path
     d="M 89.406432,221.5829 L 103.32232,224.20285 L 104.7851,220.51713"
     style="fill:none;fill-opacity:1;fill-rule:evenodd;stroke:#000000;stroke-width:3.00000596;stroke-linejoin:miter;stroke-miterlimit:4;stroke-dasharray:none;stroke-opacity:1"
     id="path3439" />
  <path
     d="M 96.002514,208.72279 L 99.257464,208.89548"
     style="fill:none;fill-opacity:1;fill-rule:evenodd;stroke:#000000;stroke-width:3.00000596;stroke-linejoin:miter;stroke-miterlimit:4;stroke-dasharray:none;stroke-opacity:1"
     id="path3441" />
  <path
     d="M 33.195262,121.08629 L 81.786591,161.2723"
     style="fill:none;fill-opacity:1;fill-rule:evenodd;stroke:#000000;stroke-width:1.00000191;stroke-linejoin:miter;stroke-miterlimit:4;stroke-dasharray:none;stroke-opacity:1"
     id="path3443" />
</svg>
